<svg viewBox="0 0 88 88" xmlns="http://www.w3.org/2000/svg" xmlns:xlink="http://www.w3.org/1999/xlink">
  <defs>
    <linearGradient x1="0%" y1="0%" y2="100%" id="c">
      <stop stop-color="#FBDB79" offset="0%"/>
      <stop stop-color="#FAD35C" offset="100%"/>
    </linearGradient>
    <path d="M47.44 5.27l24.03 23.4c4.4 4.28 4.63 11.47.34 15.86l-.29.3-24.15 23.84c-3.49 3.44-5.1 4.32-7.03 4.9a9.9 9.9 0 0 1-5.83-.02c-1.93-.6-3.53-1.5-6.99-4.97L4.18 45.38a11.36 11.36 0 0 1-.1-15.87c.02 0 7.85-8.01 23.5-24.01C31.03 2 32.63 1.09 34.55.48A9.85 9.85 0 0 1 40.37.4c1.94.56 3.56 1.44 7.07 4.86z" id="b"/>
    <filter x="-21.6%" y="-18.9%" width="143.2%" height="143.2%" filterUnits="objectBoundingBox" id="a">
      <feMorphology radius="3" operator="dilate" in="SourceAlpha" result="shadowSpreadOuter1"/>
      <feOffset dy="2" in="shadowSpreadOuter1" result="shadowOffsetOuter1"/>
      <feGaussianBlur stdDeviation="2" in="shadowOffsetOuter1" result="shadowBlurOuter1"/>
      <feComposite in="shadowBlurOuter1" in2="SourceAlpha" operator="out" result="shadowBlurOuter1"/>
      <feColorMatrix values="0 0 0 0 0 0 0 0 0 0 0 0 0 0 0 0 0 0 0.06 0" in="shadowBlurOuter1"/>
    </filter>
    <linearGradient x1="0%" y1="0%" y2="100%" id="d">
      <stop stop-color="#4C4C4C" offset="0%"/>
      <stop stop-color="#171717" offset="100%"/>
    </linearGradient>
  </defs>
  <g fill="none">
    <g transform="translate(6 7)">
      <use fill="#000" filter="url(#a)" xlink:href="#b"/>
      <use fill="url(#c)" fill-rule="evenodd" xlink:href="#b"/>
      <path stroke="#FFC100" stroke-width="3" d="M48.48 4.2l24.03 23.39c5.02 4.89 5.23 13.02.37 18l-.23.23-.08.08-24.15 23.83c-3.34 3.3-5.2 4.54-7.65 5.28-2.22.66-4.5.65-6.7-.03-2.46-.76-4.3-2.02-7.6-5.34L3.11 46.44A12.86 12.86 0 0 1 3 28.47L26.5 4.45c3.3-3.35 5.13-4.63 7.58-5.4 2.2-.7 4.48-.73 6.7-.08 2.47.72 4.33 1.95 7.7 5.22z"/>
      <path stroke="#FAD050" stroke-width="2" d="M48.13 4.55l24.04 23.4c4.82 4.7 5.01 12.51.36 17.28l-.24.24-.07.07-24.15 23.84c-3.29 3.24-5.07 4.44-7.45 5.15-2.12.64-4.29.63-6.4-.03-2.37-.73-4.15-1.94-7.4-5.22L3.47 46.1a12.36 12.36 0 0 1-.1-17.27L26.87 4.8c3.24-3.3 5-4.53 7.37-5.28 2.11-.67 4.28-.7 6.41-.07 2.38.7 4.17 1.88 7.48 5.1z"/>
      <path stroke="#323232" stroke-width="2" d="M46.74 5.98c-3.1-3.01-4.63-4.02-6.65-4.61a8.85 8.85 0 0 0-5.25.06c-2 .64-3.51 1.68-6.54 4.77l-23.5 24a10.36 10.36 0 0 0 .09 14.47l23.34 23.19c3.05 3.06 4.56 4.1 6.57 4.72 1.74.54 3.5.55 5.25.02 2.02-.6 3.54-1.62 6.62-4.66l24.15-23.83.04-.04.23-.24a10.29 10.29 0 0 0-.32-14.46L46.74 5.98z"/>
    </g>
    <path d="M33.21 16h6.58a2 2 0 0 1 1.99 2.2l-1.43 14.32a3.87 3.87 0 0 1-7.7 0L31.22 18.2a2 2 0 0 1 1.99-2.2z" fill="url(#d)" transform="translate(6 7)"/>
    <path d="M51 65v-4.34c0-3.88 1.42-7.63 4-10.53 2.58-2.9 4-6.65 4-10.54V33" stroke="#323232" stroke-width="5" stroke-linecap="round"/>
    <path d="M57.75 29.13l-6.36 7.3a1.6 1.6 0 0 0 1.2 2.65h12.72a1.6 1.6 0 0 0 1.2-2.65l-6.35-7.3a1.6 1.6 0 0 0-2.41 0z" fill="#323232"/>
    <path d="M28 31v4.34c0 3.88 1.42 7.63 4 10.53 2.58 2.9 4 6.65 4 10.54V63" stroke="#323232" stroke-width="5" stroke-linecap="round"/>
    <path d="M34.75 66.87l-6.36-7.3a1.6 1.6 0 0 1 1.2-2.65h12.72a1.6 1.6 0 0 1 1.2 2.65l-6.35 7.3a1.6 1.6 0 0 1-2.41 0z" fill="#323232"/>
  </g>
</svg>
